<?xml version="1.0" encoding="UTF-8" standalone="no"?>
<!-- Created with Inkscape (http://www.inkscape.org/) -->

<svg
   version="1.1"
   id="svg1"
   width="1024"
   height="1024"
   viewBox="0 0 1024 1024"
   sodipodi:docname="Logo.svg"
   inkscape:version="1.4.2 (f4327f4, 2025-05-13)"
   xmlns:inkscape="http://www.inkscape.org/namespaces/inkscape"
   xmlns:sodipodi="http://sodipodi.sourceforge.net/DTD/sodipodi-0.dtd"
   xmlns:xlink="http://www.w3.org/1999/xlink"
   xmlns="http://www.w3.org/2000/svg"
   xmlns:svg="http://www.w3.org/2000/svg">
  <defs
     id="defs1">
    <linearGradient
       id="linearGradient125"
       inkscape:collect="always">
      <stop
         style="stop-color:#8500d4;stop-opacity:1;"
         offset="0"
         id="stop125" />
      <stop
         style="stop-color:#500082;stop-opacity:1;"
         offset="1"
         id="stop126" />
    </linearGradient>
    <linearGradient
       inkscape:collect="always"
       xlink:href="#linearGradient125"
       id="linearGradient126"
       x1="466.46844"
       y1="232.29164"
       x2="889.41425"
       y2="486.42313"
       gradientUnits="userSpaceOnUse" />
  </defs>
  <sodipodi:namedview
     id="namedview1"
     pagecolor="#ffffff"
     bordercolor="#000000"
     borderopacity="0.25"
     inkscape:showpageshadow="2"
     inkscape:pageopacity="0.0"
     inkscape:pagecheckerboard="0"
     inkscape:deskcolor="#d1d1d1"
     inkscape:zoom="0.25"
     inkscape:cx="860"
     inkscape:cy="1038"
     inkscape:window-width="1920"
     inkscape:window-height="1009"
     inkscape:window-x="-8"
     inkscape:window-y="-8"
     inkscape:window-maximized="1"
     inkscape:current-layer="g1" />
  <g
     inkscape:groupmode="layer"
     inkscape:label="Image"
     id="g1">
    <path
       style="fill:#000000"
       d="m 503.5,913.24259 c -18.15,-0.14158 -62.25,-0.64799 -98,-1.12535 -61.27973,-0.81826 -65.44567,-0.98774 -72.78672,-2.96107 -13.10895,-3.52379 -22.98725,-9.29305 -32.88348,-19.20506 -7.63912,-7.65131 -9.32972,-10.03779 -14.21605,-20.06757 -9.89748,-20.31581 -13.24834,-38.88913 -12.31373,-68.2531 0.67977,-21.35724 3.22402,-35.30435 10.30845,-56.50907 C 294.4311,712.72769 311.4749,685.3552 335.98763,661 c 16.32638,-16.22146 30.49058,-26.76512 62.54409,-46.55706 21.17674,-13.07591 30.66827,-19.90389 38.81903,-27.92546 10.66181,-10.49281 17.8255,-22.09668 19.14878,-31.01748 0.78293,-5.27813 -1.7285,-9.28308 -7.85945,-12.53334 -5.55709,-2.94605 -4.49873,-3.43493 -20.2641,9.36036 -16.69945,13.5534 -35.87555,22.14175 -62.69326,28.07829 -12.75159,2.82277 -26.97179,4.26282 -50.68272,5.13255 -36.66127,1.34476 -51.43807,5.35191 -69.88777,18.9521 -8.49134,6.25939 -22.69492,20.03689 -27.51889,26.69336 -5.75585,7.94236 -7.91391,9.2368 -16.09402,9.65349 -17.50906,0.8919 -41.02866,-8.90142 -68.99932,-28.7306 -5.5,-3.8991 -10.57335,-7.09309 -11.27411,-7.09774 -0.70076,-0.005 -3.54193,1.55152 -6.31371,3.45817 -5.34426,3.6762 -10.36672,5.13806 -14.27906,4.15613 C 96.939172,611.69564 79.922088,594.9725 74.094416,586.54248 67.119934,576.45353 60.673533,562.60705 57.287502,550.44223 54.743648,541.30306 54.525602,539.12687 54.587976,523.5 c 0.06011,-15.05961 0.367066,-18.11599 2.689277,-26.77735 6.387347,-23.82346 22.272121,-48.27119 34.891086,-53.69972 4.5852,-1.9725 5.663182,-2.09369 9.260461,-1.04107 2.23916,0.65521 5.95133,2.27734 8.24927,3.60472 2.29794,1.32738 4.8397,2.41342 5.64835,2.41342 5.64411,0 39.81176,-21.28959 48.89346,-30.46512 8.91485,-9.00697 10.1078,-12.28197 10.94046,-30.03488 0.76688,-16.35032 1.82752,-20.90981 7.4406,-31.98569 5.07266,-10.00949 13.17224,-20.48905 24.80022,-32.08751 15.89114,-15.85079 31.12036,-26.44484 57.59884,-40.06804 7.3804,-3.79722 7.64103,-4.06607 16.34392,-16.85876 11.64616,-17.11914 17.72264,-24.588 31.61336,-38.85738 22.35328,-22.96264 55.03466,-50.62492 103.33795,-87.46764 36.20367,-27.61388 39.47773,-29.41223 46.72479,-25.66463 7.85041,4.05961 8.12377,11.8641 1.45096,41.42427 -2.67974,11.87111 -2.50394,14.51105 0.89744,13.4769 3.17571,-0.96554 5.16793,-3.00943 12.58511,-12.91152 22.75249,-30.37504 58.08987,-47.47186 98.16548,-47.4941 16.43383,-0.009 33.50321,3.67943 45.61033,9.85602 5.21777,2.66191 6.7994,2.66742 12.23213,0.0426 2.38543,-1.15251 8.65745,-3.21362 13.93783,-4.58025 8.97691,-2.32332 10.77022,-2.45232 27.6007,-1.98543 18.62755,0.51675 30.74129,2.55576 44.5,7.49035 22.88146,8.20647 42.96279,23.18751 49.39005,36.84588 l 2.89005,6.14155 8.10995,0.70318 c 16.37593,1.41987 35.81639,8.08686 48.28325,16.55845 6.91048,4.69586 20.89814,18.47625 25.29659,24.92174 7.34741,10.76689 11.91786,22.26218 14.11456,35.5 0.63887,3.85 1.62189,7.57523 2.18449,8.27829 0.56259,0.70305 4.89474,3.27817 9.62698,5.72247 28.07902,14.50343 46.96382,43.08394 49.92194,75.55257 0.94777,10.40286 0.0498,28.01056 -1.77382,34.78312 -1.41297,5.24737 -1.01558,6.57041 5.09324,16.95694 10.97751,18.66455 15.16218,30.30715 16.89316,47.00019 2.85763,27.55811 -8.41391,61.8548 -26.69853,81.23746 -8.3002,8.79865 -14.32857,13.25687 -25.77433,19.06115 l -9.05558,4.59219 -4.75718,10.90781 c -7.6452,17.5298 -17.09086,29.51678 -32.24482,40.92016 -17.0917,12.86155 -44.81141,21.94406 -73.34292,24.03122 l -9.34293,0.68346 -7.04943,6.34912 c -8.24891,7.42942 -19.18028,13.41098 -30.32131,16.59157 -6.44544,1.84007 -10.39496,2.26427 -20.94341,2.24945 -14.54316,-0.0204 -20.49089,-1.25738 -33.45631,-6.95795 -10.01095,-4.40155 -11.66891,-3.93843 -14.95816,4.17835 -7.80464,19.25925 -17.54912,35.29418 -38.85705,63.94083 -7.55067,10.1512 -16.31951,22.57199 -19.48634,27.60175 C 598.16304,733.04128 593,746.21236 593,751.58374 c 0,3.93044 2.59404,9.10416 5.52887,11.02713 2.61987,1.71661 2.82676,1.69779 7.33353,-0.66712 6.65293,-3.49109 26.40766,-18.51739 35.46652,-26.97737 8.69857,-8.1235 19.34601,-20.95509 23.62095,-28.46638 1.56512,-2.75 3.72737,-8.15 4.80501,-12 3.83034,-13.68444 10.51153,-20.62774 29.21734,-30.36357 61.29621,-31.90291 152.50407,-47.93657 225.02778,-39.5582 14.759,1.70505 22.30473,3.69432 26.7308,7.04699 5.53549,4.19304 5.99688,11.78519 1.04308,17.16401 -1.25063,1.35794 -10.05263,7.60419 -19.56,13.88055 -37.47272,24.73791 -52.38503,47.5257 -50.93204,77.83022 0.77058,16.07184 6.04403,29.6379 18.99158,48.85624 5.03364,7.47154 5.71495,11.93118 2.54271,16.64376 -4.06531,6.03931 -6.61675,6.70544 -28.60401,7.46791 -43.80008,1.51889 -61.206,7.18592 -79.71212,25.95272 -13.54405,13.73483 -19.7095,25.6124 -26.25008,50.57007 -3.48049,13.28088 -4.00676,14.51613 -7.3246,17.19212 -2.73739,2.20782 -4.67606,2.90525 -8.27679,2.97752 -5.58501,0.1121 -8.75548,-1.75489 -23.32682,-13.73641 C 708.66659,879.43992 696.09695,871.97105 679,866.52284 c -15.96845,-5.0886 -34.94363,-4.35778 -48.54631,1.86973 -6.34351,2.90416 -14.62157,10.33138 -18.06635,16.20946 -1.94104,3.31213 -5.27943,14.88351 -5.36998,18.61317 -0.01,0.39337 -1.43416,2.32885 -3.1658,4.30109 -5.80407,6.61047 -5.69428,6.5924 -38.12638,6.27223 C 549.65133,913.62983 521.65,913.38416 503.5,913.24259 Z m 82.3907,-37.11978 c 24.06517,-40.23028 72.08439,-51.30509 119.3464,-27.52519 11.82188,5.94819 15.7629,6.75202 15.7629,3.21508 0,-6.53374 -28.6432,-92.38182 -37.52084,-112.45574 -2.93371,-6.63363 -2.84185,-6.66449 -13.97916,4.69633 -8.50484,8.67551 -25.80289,23.59499 -39,33.6373 -4.4,3.34817 -14.075,11.80546 -21.5,18.79399 -15.76278,14.83617 -29.66992,26.71149 -35.94578,30.69414 -10.65413,6.76108 -21.11646,-0.12604 -17.89811,-11.78193 1.27561,-4.6199 3.80398,-7.42499 16.72635,-18.55704 6.38965,-5.5044 11.61754,-10.38917 11.61754,-10.85506 0,-0.46588 -1.575,-1.90285 -3.5,-3.19326 -8.94947,-5.99921 -14.69409,-20.62384 -13.43018,-34.19049 1.58388,-17.00122 9.72383,-32.92073 33.21391,-64.95731 21.42953,-29.22633 33.54964,-50.52884 40.19284,-70.64363 3.2483,-9.83545 6.00727,-25.04227 6.01753,-33.16729 0.006,-4.57673 -0.0766,-4.69813 -4.2441,-6.25622 -14.00922,-5.23755 -38.16462,-12.0151 -40.13179,-11.26023 -1.20472,0.4623 -1.62289,1.9705 -1.63653,5.90236 -0.0101,2.90476 -0.68941,10.00356 -1.50963,15.77512 -4.69126,33.01036 -19.69959,65.05883 -43.08661,92.00626 -3.10266,3.575 -13.1683,14.375 -22.3681,24 -24.27269,25.39453 -29.92464,32.29764 -37.96926,46.37432 -14.64206,25.62105 -18.19816,50.46231 -10.95554,76.53031 5.44435,19.59559 20.96073,42.90677 38.12507,57.27756 6.23908,5.22366 7.03928,5.34152 36.17309,5.32798 L 580.2814,885.5 Z m -102.25003,7.37122 c 0.37279,-0.97149 -1.87799,-5.26252 -5.9172,-11.28095 C 460.36324,846.34631 453,824.25001 453,798.02052 c 0,-14.73099 1.86047,-26.82423 6.05098,-39.33208 8.58588,-25.62715 22.50132,-45.9259 52.57233,-76.68844 24.47105,-25.03379 34.59905,-37.80548 44.01171,-55.5 13.97256,-26.2665 18.89628,-52.47699 14.93432,-79.5 -4.04305,-27.57608 -14.0592,-52.36329 -26.13657,-64.68078 -3.40781,-3.47557 -7.03679,-6.31503 -8.0644,-6.30991 -2.89291,0.0144 -27.62123,6.59772 -39.86837,10.61396 -13.20715,4.33106 -29.71532,10.81648 -32.98376,12.95805 -2.85969,1.87373 -4.51624,6.2498 -4.51624,11.93041 0,4.04662 0.27187,4.41544 6.87293,9.32404 13.96442,10.38403 17.60064,16.81664 17.61654,31.16423 0.0134,12.11377 -2.90083,21.49909 -9.9412,32.01557 -12.70172,18.97305 -29.74787,33.77581 -62.80854,54.54252 -31.92979,20.05635 -44.27027,29.22503 -59.24763,44.01956 -16.31422,16.11506 -33.33234,42.03668 -39.65618,60.40338 -2.44516,7.10164 -1.44105,9.61557 5.44671,13.63662 9.63266,5.62351 22.71214,9.21396 43.21737,11.86362 6.6,0.85284 14.025,1.81721 16.5,2.14305 5.83172,0.76774 7.6469,1.79217 9.48965,5.35566 2.98231,5.76716 1.78102,11.61067 -3.07027,14.93482 -3.45529,2.36761 -3.51299,2.37183 -15.69371,1.14733 -22.31495,-2.24326 -38.23216,-6.23487 -54.6165,-13.69633 -4.06496,-1.85119 -7.98511,-3.3658 -8.71146,-3.3658 -1.78004,0 -3.06813,5.33256 -4.4687,18.5 -1.94622,18.29741 -0.0125,35.97489 5.96183,54.5 5.87867,18.22859 17.02092,29.85679 32.81351,34.24462 4.3741,1.2153 42.64172,2.16675 102.56516,2.55007 37.1686,0.23777 41.83578,0.0945 42.37116,-1.30066 z M 758.52547,840.75 c 7.6874,-11.43826 23.7574,-28.22097 32.47453,-33.91477 12.98334,-8.48039 30.28857,-15.58124 42.32953,-17.36908 4.84197,-0.71894 7.16362,-2.9253 4.68807,-4.45527 -0.70061,-0.433 -1.00739,-1.21839 -0.68174,-1.7453 0.63553,-1.02831 -30.62263,-22.05217 -43.83586,-29.48348 -25.69624,-14.45192 -62.6485,-31.89363 -82.17335,-38.78636 -9.68512,-3.41908 -11.26146,-2.77487 -8.2659,3.37804 3.87624,7.96184 15.92804,37.57848 20.39769,50.12622 2.54692,7.15 5.23539,14.575 5.97438,16.5 1.74613,4.54848 17.1176,55.06543 18.63737,61.25 0.64198,2.6125 1.70707,4.75 2.36686,4.75 0.6598,0 4.29959,-4.6125 8.08842,-10.25 z m 95.83432,-99.61269 c -0.71361,-16.93788 0.56106,-25.81041 5.57645,-38.81577 5.06889,-13.14404 10.35651,-20.67125 25.67671,-36.55212 C 898.932,651.96294 898.37942,650.48753 880,650.78258 c -49.16708,0.7893 -99.79083,10.0742 -143.97025,26.40558 -14.06111,5.19784 -15.2098,5.99691 -13.92381,9.68591 0.86687,2.4867 2.50683,3.49398 11.70112,7.18698 31.93427,12.82681 69.69649,32.64345 105.18813,55.20004 9.83859,6.25288 13.832,8.29729 14.73824,7.54518 0.94029,-0.78038 1.09285,-4.59669 0.62636,-15.66896 z M 204.5,605.07557 c 27.26477,-25.88074 43.77393,-36.47745 66.45516,-42.65546 10.10234,-2.75172 22.97378,-4.07716 47.54484,-4.89594 9.9,-0.32989 21.15,-0.83994 25,-1.13344 12.25417,-0.93416 32.55569,-6.70984 47,-13.37125 23.98735,-11.06246 36.45151,-24.97734 42.56524,-47.51948 2.85844,-10.53944 4.19218,-12.94376 9.22064,-16.62197 7.85825,-5.74813 30.39317,-15.29015 49.14021,-20.80755 4.90935,-1.44486 9.08464,-3.10268 9.27843,-3.68405 0.59989,-1.79967 -6.58246,-4.18767 -22.20452,-7.38259 -30.96992,-6.33376 -39.54927,-12.26678 -37.04456,-25.61803 1.08496,-5.78331 7.75144,-11.80058 29.7083,-26.81517 C 494.12714,378.86775 496,377.37882 496,374.82569 c 0,-1.6846 -1.13987,-1.82649 -14.75,-1.83601 -18.75349,-0.0131 -37.54567,-1.57463 -42.9534,-3.56916 -8.64082,-3.18699 -12.25358,-10.91293 -10.74588,-22.98015 1.12762,-9.02522 7.08721,-15.59183 33.8119,-37.25588 37.82468,-30.66212 47.89998,-40.37577 68.13003,-65.68449 11.89479,-14.88093 12.81811,-16.37914 11.45423,-18.58594 -0.93176,-1.50762 -2.13166,-0.95625 -34.44688,15.82883 -17.37135,9.02298 -78.51452,38.24607 -99,47.3166 -29.82498,13.20585 -31.47005,13.53587 -56.49268,11.33315 -37.22962,-3.27729 -59.55756,0.25897 -86.05191,13.62877 -23.82301,12.02177 -49.35835,36.036 -59.52439,55.97859 -2.60521,5.11061 -2.85091,6.63276 -3.47048,21.5 -0.51252,12.29853 -1.13639,17.30308 -2.69675,21.63271 -6.87145,19.06672 -35.5829,43.71352 -66.45863,57.05015 -13.16749,5.68764 -21.12738,6.48946 -32.40186,3.26391 -2.587365,-0.74023 -6.253249,3.32029 -10.339214,11.45224 -12.718391,25.31235 -12.90686,49.41639 -0.591122,75.60099 4.37531,9.30239 12.679776,21.5 14.637776,21.5 0.61318,0 3.65161,-1.62087 6.75207,-3.60194 26.1498,-16.70867 64.18311,-36.20683 89.43223,-45.84834 15.10488,-5.76787 38.07961,-12.12914 54.20496,-15.00832 12.48686,-2.22953 42.28947,-3.16983 49.89947,-1.57438 7.14382,1.49772 11.60053,5.60256 11.60053,10.68464 0,4.27143 -5.54323,10.30119 -9.61808,10.46225 -1.58505,0.0626 -11.65692,0.20327 -22.38192,0.31248 -17.17064,0.17484 -20.99318,0.52914 -32,2.96598 -27.06714,5.99248 -61.76647,19.71286 -89.5,35.38898 -12.04613,6.80896 -14.31136,8.75463 -13.73045,11.79348 1.2192,6.37779 40.07554,28.85335 46.11784,26.6758 0.88694,-0.31964 5.21261,-3.99842 9.61261,-8.17506 z M 103.75895,531.65241 c -4.771513,-4.42209 -4.469858,-11.35464 0.86297,-19.83248 8.03614,-12.77542 24.52185,-20.57335 31.5173,-14.90803 1.91831,1.55356 2.32849,2.76523 2.1885,6.46482 -0.20653,5.45835 -3.29189,9.9585 -10.41021,15.18383 -2.66108,1.95341 -6.22327,5.3003 -7.91598,7.43752 -3.4796,4.39335 -8.76649,8.00193 -11.72354,8.00193 -1.09227,0 -3.12584,-1.05642 -4.51904,-2.34759 z M 270.5,451.60711 c -4.53975,-1.98932 -11.20867,-9.81149 -12.52144,-14.68674 -0.70848,-2.63107 -0.88499,-6.87333 -0.46146,-11.09064 0.48042,-4.78385 0.35027,-6.82973 -0.4345,-6.82973 -0.61622,0 -3.62565,1.33688 -6.68763,2.97085 -7.34111,3.91743 -11.36031,4.61556 -15.18519,2.63763 -5.04267,-2.60766 -7.21042,-6.21617 -7.20481,-11.99334 0.008,-7.86474 1.80724,-9.3309 22.05662,-17.96982 21.62874,-9.22739 39.56074,-15.34881 60.38525,-20.61365 18.76987,-4.74539 21.31778,-4.90592 24.91732,-1.56998 3.73316,3.45978 4.80397,6.83484 3.71136,11.69772 -1.53141,6.81578 -7.05993,11.11716 -17.7719,13.82717 -6.57493,1.66338 -8.016,4.31289 -8.16471,15.01143 -0.25326,18.2207 -5.10445,28.10344 -17.30504,35.25346 -7.21817,4.23013 -19.59658,5.86973 -25.33387,3.35564 z m 455.0399,155.84905 c 6.4416,-1.66855 10.60431,-4.71195 8.84765,-6.46861 -0.56906,-0.56906 -7.68359,-4.39343 -15.81006,-8.49858 -14.24161,-7.19426 -22.03111,-12.04891 -27.81083,-17.33251 -2.69378,-2.46255 -4.05817,-2.69592 -13.40008,-2.29196 -2.57785,0.11148 -3.2268,0.62309 -3.66005,2.8855 -0.76737,4.00719 2.91614,14.21386 7.16619,19.85683 8.16829,10.84539 28.11491,16.13684 44.66718,11.84933 z m 66.0965,-27.53841 c 14.93166,-2.07681 29.96659,-7.97028 41.8636,-16.40991 7.63985,-5.41965 20.7124,-19.07195 23.64025,-24.68867 2.78626,-5.34511 3.80063,-21.97832 1.87493,-30.74444 -1.78515,-8.12632 -7.55035,-18.49453 -12.91256,-23.22208 -8.30005,-7.3177 -14.49586,-9.35163 -31.60262,-10.3744 -12.14944,-0.72638 -19.85801,-3.28077 -25.86963,-8.57241 C 783.38086,461.28504 781,456.64941 781,451.04921 781,443.06677 785.488,438 792.55862,438 c 3.43859,0 5.13521,0.81989 10.33932,4.99647 3.42415,2.74805 7.2104,5.20508 8.41389,5.46005 1.20349,0.25497 8.21025,0.93115 15.57056,1.50263 12.70175,0.9862 13.84612,1.25878 22.5,5.35935 12.14248,5.75363 19.90746,12.95571 26.62562,24.6955 2.78602,4.86848 6.14683,12.03108 7.46848,15.91689 3.1818,9.35486 3.14875,9.31483 6.33026,7.66593 7.72003,-4.0011 17.87094,-15.93788 24.06622,-28.30023 7.74632,-15.45736 11.05088,-37.57233 7.72121,-51.67225 -2.41594,-10.23058 -8.93694,-21.98818 -16.43024,-29.62434 -6.57941,-6.70484 -10.1037,-12.62207 -10.14198,-17.02821 -0.0121,-1.39052 1.62786,-5.89052 3.64431,-10 3.56844,-7.2724 3.67814,-7.83607 4.11075,-21.12221 0.82268,-25.26576 -3.60235,-38.23026 -18.0974,-53.02197 -7.88215,-8.04346 -14.27145,-12.75448 -19.34658,-14.2648 -1.86533,-0.55511 -3.04851,0.64348 -8.5,8.61073 -9.28086,13.56377 -12.23413,16.3454 -18.93432,17.83384 -6.96334,1.5469 -10.60725,0.14008 -13.04455,-5.03615 -3.60004,-7.6456 -2.80913,-12.65347 3.11886,-19.74793 9.622,-11.51535 12.53709,-20.18269 11.81707,-35.13531 -0.396,-8.22362 -0.9594,-10.84626 -3.48015,-16.20005 -9.60008,-20.38947 -34.63796,-37.62423 -55.51154,-38.21121 l -6.28488,-0.17673 -1.21973,6.12877 c -4.22839,21.24647 -13.01059,32.47815 -33.57397,42.93827 -18.56146,9.44179 -23.98981,14.4328 -28.70318,26.39071 -4.22957,10.73052 -4.19233,28.15221 0.0846,39.5834 1.43388,3.83238 4.21742,7.84078 9.10647,13.11363 l 7.04135,7.59411 -0.58886,4.97207 c -1.16062,9.79963 -7.56961,15.8126 -14.68038,13.77326 -12.99008,-3.7255 -25.03979,-19.99961 -30.19809,-40.78496 -2.77069,-11.16447 -2.98988,-28.65034 -0.47896,-38.20926 5.75167,-21.89627 19.03219,-36.7788 44.67947,-50.06909 4.66525,-2.4175 10.12609,-6.03928 12.1352,-8.04839 7.24048,-7.24048 10.75807,-23.91902 7.44689,-35.3091 -3.97755,-13.68227 -23.40952,-25.06142 -53.16758,-31.13434 -10.8141,-2.2069 -14.67317,-2.55494 -23.89679,-2.1552 -6.05,0.26219 -12.47722,1.02974 -14.28272,1.70565 -4.11584,1.54082 -3.91986,2.30541 3.84736,15.01047 10.74655,17.57843 14.73151,30.58815 15.62161,51 0.8305,19.04524 -2.96853,35.93997 -8.78115,39.05079 -1.1486,0.61471 -6.68878,1.72151 -12.3115,2.45955 -11.10088,1.4571 -19.84864,4.11095 -24.52366,7.43986 -1.63469,1.164 -5.00978,4.50142 -7.50021,7.4165 -5.91169,6.91971 -7.46589,12.97069 -5.66224,22.04482 1.47654,7.42847 0.3068,10.87558 -4.96417,14.62884 -3.893,2.77206 -8.72342,2.17873 -14.4275,-1.77214 -9.15748,-6.34284 -11.4542,-19.75377 -6.10268,-35.63451 3.12012,-9.259 6.38871,-14.29958 13.71823,-21.15527 9.71257,-9.08467 22.10992,-15.35054 34.84075,-17.6092 10.17373,-1.805 9.39125,-0.61911 8.7308,-13.23203 -1.06565,-20.35128 -6.20662,-34.37302 -18.87659,-51.48497 -8.69696,-11.74603 -11.64663,-14.10189 -21.99203,-17.56475 -11.61656,-3.88835 -19.81033,-4.92501 -33.77546,-4.27322 -24.77553,1.15634 -45.52498,9.45212 -61.32183,24.51692 -7.56241,7.21195 -10.36166,12.04506 -11.65757,20.12765 -0.78945,4.92377 -1.69437,7.09716 -3.80751,9.14463 -2.84649,2.75803 -14.88365,7.86147 -30.77193,13.04649 -4.95,1.61539 -9.74704,3.70499 -10.66009,4.64356 C 451.60812,211.08767 432,242.02102 432,243.24769 c 0,3.0023 19.99868,-5.88859 72.66478,-32.30488 55.18299,-27.67872 65.53266,-32.33473 70.19409,-31.57829 7.95797,1.2914 13.74502,8.75423 13.37533,17.24847 -0.28987,6.66034 -12.01858,28.70396 -25.47917,47.88701 -22.86075,32.57949 -43.3006,53.95308 -80.25503,83.9213 -13.87296,11.25029 -18.5,15.46353 -18.5,16.84552 0,1.01506 0.83645,0.96981 32,-1.73143 31.12341,-2.69776 35.67162,-2.77424 40.40713,-0.67949 5.17524,2.28925 8.97293,9.08313 9.0461,16.183 0.10911,10.58818 -12.49454,24.64228 -46.64825,52.0166 -1.45007,1.16223 -1.77014,2.23512 -1.26602,4.2437 0.57271,2.28188 3.34147,4.05348 18.31787,11.72076 37.38848,19.14134 57.33678,39.22784 74.59015,75.1069 7.79472,16.20942 11.53533,21.3323 19.97257,27.35298 12.50715,8.92492 25.86916,13.35022 47.06731,15.58799 12.68242,1.33882 21.5166,0.68995 28.59561,-2.10034 2.74536,-1.08212 6.60912,-1.96749 8.58613,-1.96749 3.86246,0 6.81349,2.52833 16.2379,13.91198 16.45283,19.87322 47.80671,29.58496 80.7299,25.00577 z m -43.92052,-39.9399 C 728.75753,536.98061 717.97691,523.68118 715.71482,500.5 c -1.08969,-11.16684 3.21999,-29.14724 8.10889,-33.8311 5.74051,-5.49977 16.57892,-4.05768 22.08176,2.93806 2.7528,3.49961 2.64278,5.94278 -0.58622,13.01861 -3.34604,7.33231 -3.84546,19.79381 -1.00652,25.11501 3.78043,7.08591 11.60935,8.98417 24.86877,6.02985 13.68874,-3.04998 14.62817,-3.12516 17.2865,-1.38336 5.18693,3.39861 5.27515,16.68725 0.14278,21.50885 -5.65826,5.31566 -24.80461,8.30954 -38.8949,6.08193 z M 658.5,493.80263 c -3.3,-1.16276 -7.575,-3.1058 -9.5,-4.31788 -4.70834,-2.9646 -11.37538,-10.34007 -14.00337,-15.49136 -2.56125,-5.02045 -4.95517,-15.6797 -4.97927,-22.17081 -0.0224,-6.02389 -2.61435,-8.1988 -11.64536,-9.77149 -8.43963,-1.46969 -14.87451,-3.92471 -20.58462,-7.85337 -13.56183,-9.33078 -19.04114,-32.47629 -12.32195,-52.04995 8.67933,-25.28376 33.68334,-45.2836 56.37366,-45.09133 9.90536,0.0839 13.36821,1.57469 14.96765,6.44356 1.51276,4.60499 0.92768,8.989 -1.64605,12.33387 -1.29179,1.67882 -3.74152,2.73987 -8.72825,3.78043 -14.9391,3.11729 -27.68271,12.26487 -34.04677,24.43936 -2.4444,4.67615 -2.84974,6.60083 -2.86634,13.6102 -0.0177,7.4906 0.23116,8.52145 3.01805,12.5 3.80486,5.43179 9.6967,7.64185 20.67675,7.75597 l 7.71413,0.0802 7.78587,-7.04797 c 14.58738,-13.20489 22.751,-17.50204 40.05103,-21.08202 7.7928,-1.6126 12.79859,-1.87796 31.5,-1.66985 20.63617,0.22964 22.70556,0.0892 28.78179,-1.95383 12.56757,-4.22555 22.45064,-13.43246 26.90015,-25.05973 2.71872,-7.10446 3.72921,-21.01432 2.13311,-29.36325 -0.66487,-3.47784 -3.17256,-10.39871 -5.57263,-15.37971 -4.18229,-8.67973 -6.3057,-11.25551 -15.81728,-19.18703 -3.00341,-2.50448 -3.56143,-6.95418 -1.41165,-11.25661 2.80804,-5.6198 13.43064,-7.67795 21.26374,-4.11988 5.02132,2.28086 14.72481,12.89701 20.30757,22.21759 6.09595,10.17735 8.9586,19.59985 9.87575,32.50625 L 807.5,347.5 l 9.59814,0.002 c 9.4832,0.002 9.7167,0.0609 19.5,4.91533 8.26603,4.10157 11.22349,6.25993 17.90186,13.06486 15.77851,16.07753 24.17253,36.51515 19.05879,46.40403 -3.90235,7.54631 -14.66197,11.31259 -20.48094,7.16912 -4.00837,-2.85421 -5.08036,-4.99848 -6.09795,-12.19762 -1.1155,-7.89185 -4.12572,-13.82119 -10.52687,-20.7352 -6.99913,-7.55989 -14.04956,-11.12616 -21.96738,-11.1116 -11.60244,0.0213 -12.94894,0.58001 -16.92556,7.02265 -4.11509,6.66697 -15.04116,17.15929 -23.93638,22.98613 -14.03021,9.19054 -32.04591,13.21387 -49.79558,11.12054 -13.17502,-1.55382 -25.06402,-1.40874 -32.73506,0.39945 -18.58709,4.38129 -31.71776,18.53469 -32.81054,35.3661 -0.63312,9.75147 2.0396,14.44774 10.86672,19.09412 11.34682,5.97268 13.33843,9.24146 10.28311,16.87745 -3.31969,8.29671 -9.35402,10.00481 -20.93236,5.92518 z M 373.05057,270.24341 c 7.52252,-5.14193 28.22479,-33.22494 38.87818,-52.73899 4.58187,-8.3927 11.42402,-24.67003 15.45461,-36.76618 C 432.26016,166.10258 433.03382,163 431.80658,163 c -0.56771,0 -6.26894,4.19279 -12.66939,9.31732 -6.40046,5.12453 -18.24436,14.55208 -26.31979,20.95012 -21.01677,16.65125 -44.05786,37.21988 -60.91253,54.37621 -21.69339,22.08165 -21.7189,22.30657 -2.54788,22.46488 7.22865,0.0597 15.84301,0.44354 19.14301,0.85298 11.77931,1.46151 21.79024,1.16869 24.55057,-0.7181 z"
       id="path1" />
    <path
       style="fill:#ff0000;fill-opacity:1;stroke-width:1.41421"
       d="m 540.75438,223.0259 c -47.57277,20.48406 -93.13005,45.53564 -140.6865,66.0469 -11.89743,5.93828 -24.56134,10.23622 -38.08825,8.47085 -30.9228,-0.79255 -63.94165,-3.66086 -92.23497,11.47582 -27.03758,13.62237 -53.00457,33.53179 -66.53433,61.2476 -5.50683,19.12361 -0.29363,42.05804 -15.94028,57.27565 -18.81826,20.57837 -43.34381,37.72559 -70.3958,44.29085 -7.65229,2.5501 -18.544134,-5.50052 -23.538917,3.53278 -14.249449,20.35647 -18.019348,46.77914 -10.906275,70.46965 4.101343,13.15459 10.244519,26.69098 20.543362,36.04382 8.63994,-0.95176 15.9262,-8.27418 23.78199,-11.90203 50.96963,-29.10129 107.29602,-55.24891 167.31086,-53.86719 6.4784,1.00514 18.24042,0.09 19.60011,8.66483 -0.1084,10.62667 -14.38197,8.61568 -21.48665,9.36917 -36.51807,-0.0863 -72.28968,10.00367 -104.75832,26.35373 -13.10845,7.25736 -28.50888,11.84785 -39.29811,22.5333 -3.44374,7.2321 6.83075,11.48446 11.09826,15.29395 10.63818,6.40059 21.51549,14.45617 34.01294,16.25517 14.0192,-6.48903 23.53716,-20.02593 36.3497,-28.41961 19.96126,-15.68027 44.43175,-25.53976 69.99749,-25.47679 30.44956,-1.89832 62.16842,-1.57233 90.21192,-15.43873 22.28573,-9.46657 40.83439,-28.49179 46.18636,-52.55492 4.31556,-15.81136 22.56818,-19.3415 35.46309,-25.49459 9.65419,-4.68263 21.29034,-5.87638 30.02647,-12.01821 0.51616,-6.38154 -9.33733,-6.044 -13.5621,-7.97981 -14.6247,-4.2771 -32.00136,-5.14812 -43.33238,-16.44301 -6.23997,-10.13505 5.55174,-18.06573 12.52353,-23.43396 12.8864,-10.90497 28.92815,-18.46552 40.0703,-31.20661 -0.22406,-5.99698 -9.38788,-3.77332 -13.40536,-4.77729 -16.07708,-1.78538 -33.41294,0.91074 -48.50515,-5.86245 -10.4885,-9.0475 -6.56672,-25.9516 3.53767,-33.74584 32.7309,-29.89829 69.5732,-55.97932 96.05247,-92.11099 2.54815,-4.7882 10.15487,-10.02912 7.54205,-16.03133 -0.41829,-0.48139 -1.04499,-0.65448 -1.63518,-0.56071 z M 329.13334,372.84691 c 8.72919,0.11564 10.68167,11.8706 4.41391,16.64739 -6.49006,6.74355 -20.53276,5.76546 -21.72974,17.22192 -1.45344,14.03396 -1.92689,31.24561 -15.90437,39.21128 -10.31428,5.78823 -27.25605,7.58098 -33.43566,-4.85583 -5.20031,-6.70098 -1.53989,-16.11948 -5.4193,-22.97821 -7.76759,-0.71459 -16.72663,10.35723 -23.87039,2.32296 -6.20897,-6.63168 -1.43202,-16.38999 6.45235,-18.70796 27.59424,-12.75718 56.56724,-23.17333 86.488,-28.73172 0.99801,-0.0942 2.00196,-0.18163 3.0052,-0.12983 z M 130.4833,497.51592 c 8.24875,-0.52005 6.18224,9.99175 1.70003,13.5257 -7.38964,7.50876 -14.42621,17.38284 -24.4987,20.95403 -9.264012,-5.17184 -3.69754,-16.32376 1.17667,-22.52522 5.17837,-6.54213 13.10195,-11.71473 21.622,-11.95451 z"
       id="path119" />
    <path
       style="fill:#ff0000;fill-opacity:1;stroke-width:1.41421"
       d="m 602.32792,560.95112 c -6.85177,1.86872 -3.15968,11.41741 -5.00776,16.40156 -3.94285,35.40589 -19.19941,69.27239 -42.9003,95.859 -18.94722,23.63229 -42.96095,43.43308 -59.03356,69.36369 -10.52118,17.8592 -18.09631,38.08829 -16.2109,59.14758 0.3194,28.70076 17.01306,54.56663 36.11439,74.78328 6.83412,7.75441 16.72545,11.76036 27.0534,10.6511 13.13143,-0.005 26.79975,1.31928 39.57531,-0.40399 12.86207,-24.92825 37.1043,-46.16307 65.81983,-48.05078 23.78453,-2.60217 46.32951,6.75904 67.69628,16.068 5.56666,2.73523 7.95322,-4.15451 5.96622,-8.39412 -10.70407,-35.99533 -21.84751,-72.0289 -36.0183,-106.81847 -1.1504,-4.07955 -5.29351,-8.65812 -8.98794,-3.96252 -21.00033,18.94042 -42.64557,37.1623 -64.13956,55.55483 -14.81825,11.99933 -27.49668,27.70498 -44.88747,35.92435 -6.95573,2.9326 -12.61439,-4.85754 -10.02931,-11.18942 5.67949,-12.7271 20.27709,-18.8748 28.43342,-29.47199 -7.49073,-8.304 -17.3799,-17.09836 -16.28002,-29.56313 -1.44571,-12.14859 1.41774,-24.08041 7.97428,-34.38583 22.24599,-41.45796 58.59173,-76.28258 67.99273,-123.88732 1.20735,-8.11518 3.60721,-17.07201 1.77883,-24.8537 -14.54589,-5.40163 -29.44569,-10.87542 -44.90957,-12.77212 z"
       id="path120" />
    <path
       style="fill:#ff0000;fill-opacity:1;stroke-width:1.41421"
       d="m 703.66239,711.5842 c -6.9849,0.98961 -1.71603,9.60598 0.13535,13.05109 18.25044,40.60245 30.45652,84.07739 44.33228,126.39258 5.02467,3.56699 8.38256,-5.42493 11.34445,-8.21704 16.89803,-25.2019 42.68838,-44.40863 72.45564,-51.15822 3.74442,-0.62178 11.38274,-2.88811 7.06589,-7.86618 -17.21577,-17.17117 -39.81681,-27.78024 -60.65522,-39.87372 -23.71117,-12.00204 -47.3607,-25.3263 -73.1233,-32.2926 -0.51726,-0.0412 -1.03625,-0.0763 -1.55509,-0.0359 z"
       id="path121" />
    <path
       style="fill:#ff0000;fill-opacity:1;stroke-width:1.41421"
       d="m 877.14938,649.04392 c -51.97835,1.62846 -104.16644,10.92949 -152.37874,30.726 -5.94738,1.50281 -5.75106,9.28477 -0.43642,11.45458 20.66913,10.43987 42.31304,18.97504 62.49558,30.39304 22.79721,11.28843 43.91816,26.04923 66.58179,37.2931 4.96397,-2.32406 1.47131,-10.39095 2.77788,-14.71869 -0.50079,-17.44164 0.8329,-35.17539 9.97767,-50.58925 7.68829,-15.02285 22.56894,-25.20752 30.26472,-39.96535 -2.91523,-6.68859 -13.73907,-3.80908 -19.28248,-4.59343 z"
       id="path122" />
    <path
       style="fill:#ff5555;fill-opacity:1;stroke-width:1.41421"
       d="m 528.98217,475.6536 c -22.67197,5.89909 -45.87345,11.91201 -66.57853,23.08041 -5.94931,5.36487 -8.42744,16.98038 -0.10496,21.55018 9.46866,6.8914 19.5159,16.03128 18.71071,28.86985 2.08622,22.35726 -12.52347,41.27699 -27.8799,55.49218 -36.80057,34.14018 -88.0709,52.35176 -118.14498,94.48834 -10.65111,15.1857 -22.90119,30.94933 -25.98437,49.66943 0.61937,8.79175 11.87097,10.90077 18.31572,14.27194 17.55965,6.05745 36.6057,7.14523 54.59085,10.62318 7.0803,4.95508 4.04506,17.10418 -4.7923,17.06724 -23.9071,-0.78688 -47.108,-7.66744 -69.33514,-16.16678 -8.66687,-2.24176 -8.76705,9.41941 -9.47965,14.95972 -2.46847,27.1976 0.45115,57.26917 17.40146,79.67381 9.79627,13.38847 27.03562,16.65583 42.63633,16.00382 41.24315,0.34784 82.58404,1.86653 123.78236,-0.1243 6.86503,-1.40714 -0.27894,-9.02937 -1.81196,-12.38541 -13.68297,-21.03248 -25.18176,-44.92771 -24.56367,-70.44 -2.64639,-33.82727 11.79466,-66.83773 33.61794,-92.23324 26.18939,-32.7858 61.74574,-59.88448 75.95469,-100.86177 15.48873,-39.6925 7.96592,-85.98094 -14.34248,-121.53159 -4.31298,-4.85846 -8.62638,-12.83229 -15.18332,-13.51114 -2.2696,0.50137 -4.5392,1.00275 -6.8088,1.50413 z"
       id="path123" />
    <path
       style="fill:#d40000;fill-opacity:1;stroke-width:1.41421"
       d="m 431.01749,161.78382 c -26.49121,18.58757 -51.37967,39.69768 -75.69213,61.11336 -14.39981,14.18715 -30.89896,27.2925 -41.34785,44.80626 -0.90805,6.37315 9.27719,2.8435 12.79421,4.27027 15.12374,0.56183 30.49479,2.25074 45.48685,1.37554 30.37626,-29.34628 50.66637,-68.18994 61.89947,-108.58508 0.27339,-1.80362 -1.31281,-3.38373 -3.14055,-2.98035 z"
       id="path124" />
    <path
       style="fill:url(#linearGradient126);fill-opacity:1;stroke-width:1.41421"
       d="m 574.58227,135.77555 c -27.53154,0.27301 -57.28593,11.08947 -72.98669,34.75319 -4.97883,7.71033 -4.44484,19.92459 -14.80504,23.03898 -11.29947,5.80175 -24.83888,7.92462 -35.21327,14.6518 -6.39402,11.8296 -16.53649,22.28694 -20.3471,35.24894 2.91544,4.67615 9.70084,-0.95472 13.55408,-1.75354 42.66871,-18.83209 83.40073,-42.01597 126.67956,-59.41672 10.85094,-2.32105 18.24839,11.78371 12.78592,20.37076 -11.37508,26.28282 -28.46374,49.89546 -47.21511,71.47808 -22.67377,25.05426 -48.68994,46.66879 -74.02884,68.91851 -2.67471,5.50855 6.70127,4.2094 9.74206,4.09073 20.39644,-0.56385 40.85255,-4.71284 61.15921,-2.97481 12.40046,4.80605 10.98183,23.18502 1.68132,30.55299 -11.53962,14.5627 -28.14248,24.22808 -39.87614,38.40649 -1.18376,6.58308 8.65279,8.23265 12.41857,11.71146 28.45512,14.68489 56.28844,33.7168 71.99649,62.48939 10.81208,18.2554 18.66476,41.39742 40.1628,49.85496 23.2608,10.35608 50.2712,13.21104 74.84007,6.05184 5.93455,0.44905 8.92578,8.12665 13.3629,11.46927 30.3101,34.6604 86.53143,36.12976 123.41531,11.41502 14.18114,-10.09601 30.89844,-23.59177 29.50237,-43.00093 1.72845,-16.58308 -5.81572,-34.19 -19.52002,-43.74947 -16.9614,-10.32213 -41.15189,-2.48094 -55.16262,-18.53393 -5.43591,-6.12651 -4.37297,-22.78308 6.88049,-20.02272 9.40283,3.0339 16.89739,11.15611 27.51916,10.57069 21.07468,0.0871 42.80965,10.40057 52.81479,29.42226 5.59645,7.51686 6.41965,18.13869 13.34941,24.51121 6.30013,1.0983 10.48385,-6.72674 14.91829,-10.13704 20.2259,-23.34902 30.81505,-59.84816 14.33548,-88.06795 -4.46481,-10.93744 -16.28885,-17.72179 -19.03663,-29.30626 1.70729,-10.05761 7.57125,-19.68448 7.17326,-30.47464 2.37071,-23.97493 -7.00055,-49.28387 -27.17562,-63.27795 -4.37285,-2.19186 -9.82023,-10.34944 -15.04639,-6.42732 -9.27432,8.07959 -13.80616,24.54552 -27.84508,25.51386 -10.17574,0.85216 -12.49929,-14.11135 -6.01258,-19.92141 9.31973,-10.63853 13.76309,-24.56519 12.3221,-38.63586 1.58947,-18.32093 -13.19895,-32.74873 -26.60569,-42.95123 -11.93468,-8.59338 -26.81645,-14.05807 -41.50111,-12.88812 -1.77253,15.67723 -8.19764,31.58888 -21.64685,40.87408 -15.16449,11.66972 -37.69544,18.23744 -42.97607,38.93507 -4.07118,17.48295 -2.90994,38.12469 10.81561,51.28705 6.14408,4.7983 7.56363,13.43028 2.36254,19.49545 -8.25274,7.8868 -19.65399,-1.47268 -24.85922,-8.64273 -16.20271,-21.50019 -19.2232,-51.92742 -8.8195,-76.37858 9.56273,-21.00675 31.43903,-31.49612 49.65768,-43.76052 11.53818,-10.5943 13.96936,-29.62326 7.70636,-43.57545 -12.79162,-17.52092 -35.54386,-24.09646 -55.93577,-27.98798 -12.1469,-1.20096 -25.45054,-3.1479 -37.07916,1.25603 -4.72723,4.91442 2.83586,11.52155 4.18464,16.4568 10.12817,15.7464 15.6922,33.80496 14.62195,52.61034 -0.67359,11.24517 1.84217,25.36952 -6.72224,34.15111 -13.87171,5.06204 -31.96445,3.46628 -42.23583,16.39604 -8.42819,6.91179 -11.05521,18.1486 -8.69796,28.4058 2.2375,8.01135 -9.10123,15.21857 -15.28843,9.11505 -13.4332,-9.3222 -9.92894,-28.08107 -3.86974,-40.70836 10.31631,-17.47727 28.69686,-28.49482 48.34843,-31.94686 9.48186,-1.54883 6.34533,-12.82776 5.70103,-19.37914 -2.50072,-24.26807 -14.54274,-48.59457 -34.88576,-62.60381 -11.61108,-6.73867 -25.56928,-7.09265 -38.61742,-6.97992 z m 193.11748,146.84343 c 14.8204,0.17159 22.27586,15.66871 29.35576,26.26507 6.98639,11.45948 5.62269,25.62306 9.72846,37.97669 8.18051,4.30942 18.59938,1.58698 26.8811,6.32252 16.53807,8.37557 30.51936,23.71814 36.93806,41.3188 2.23261,7.60333 4.05804,18.8434 -5.43313,22.1689 -5.383,3.77462 -13.47005,1.99317 -14.77189,-5.09338 -3.33684,-16.97636 -14.11995,-34.88914 -32.51587,-37.92689 -9.0547,-1.96455 -19.42671,0.55446 -23.68532,9.60118 -14.16292,17.76134 -35.16525,31.91586 -58.62289,30.68719 -16.8923,1.37107 -34.45356,-2.05206 -50.92894,2.50817 -17.19265,6.61992 -32.17413,25.44905 -27.28991,44.48143 3.382,10.11264 16.16376,11.9402 20.84861,20.63039 1.74354,8.19842 -8.71762,15.37811 -16.05077,11.14797 -17.11062,-3.72665 -29.15704,-19.81176 -29.51342,-37.07891 0.24778,-8.35849 -6.23845,-14.89195 -14.40582,-15.64769 -14.13533,-2.47255 -27.91881,-11.3239 -31.47049,-25.9694 -9.87887,-34.27354 19.7366,-73.31287 55.21509,-75.01409 8.00329,-1.86283 17.19523,5.89248 12.54286,13.93498 -5.51454,6.79171 -15.97299,4.70293 -22.64952,10.05694 -14.96941,7.63738 -27.5516,23.82629 -23.41462,41.38784 2.96351,14.76869 21.55524,17.45294 33.68424,13.79963 13.64936,-9.45677 25.66464,-23.17041 43.1972,-25.29678 22.10065,-4.48547 45.07138,-1.0202 67.05898,-5.81315 18.08636,-6.98831 30.19858,-26.41653 27.6766,-45.78794 0.45817,-16.74106 -7.17922,-32.80882 -19.8487,-43.63622 -5.68185,-3.55934 -5.43009,-12.66868 1.72357,-14.15871 1.84969,-0.61194 3.8061,-0.86944 5.75076,-0.86454 z m -34.83053,182.77605 c 7.13031,0.17252 16.40823,7.03428 11.3682,14.66668 -4.05076,11.10229 -6.74024,28.15536 5.33443,35.20092 11.66207,5.21713 24.44252,-3.19464 36.04864,-1.10761 5.99236,7.79087 2.04336,20.31243 -8.18421,21.91478 -17.22178,4.21271 -39.77144,4.7526 -51.32325,-10.98501 -10.06907,-15.19312 -10.5711,-36.13004 -3.39189,-52.62421 1.96124,-3.77943 5.63209,-7.21416 10.14808,-7.06555 z"
       id="path125" />
    <path
       style="fill:#470072;fill-opacity:1;stroke-width:1.41421"
       d="m 679.39151,570.26228 c -9.83793,0.65559 -7.96526,12.96705 -4.29789,18.92892 7.72884,17.77664 29.04681,23.65266 46.80992,20.47295 5.154,-1.16924 13.45661,-2.36254 14.99563,-8.06544 -13.44513,-10.63062 -30.49901,-16.42972 -44.19969,-27.02473 -3.95479,-2.49324 -8.52399,-4.59918 -13.30797,-4.3117 z"
       id="path126" />
  </g>
</svg>
